# xmcd
#
# Track frame offsets:
#	150
#	22646
#	37520
#	50780
#	68141
#	102877
#	120851
#	141365
#	170731
#	190174
#	202403
#	221900
#
# Disc length: 3181 seconds
#
# Revision: 0
# Processed by: cddbd v1.5.1PL0 Copyright (c) Steve Scherf et al.
# Submitted via: dBpowerAMP V4.0
#
DISCID=ab0c6b0c
DTITLE=Mark David Group - MDG
DYEAR=1997
DGENRE=
TTITLE0=Thunderbird
TTITLE1=Dream Outfit
TTITLE2=If You Leave Me
TTITLE3=Say That You Will
TTITLE4=Lonesome Train
TTITLE5=The Previous Man
TTITLE6=Tear That Body Down
TTITLE7=No One Plays Me
TTITLE8=Oh, Little Darlin'
TTITLE9=The Diva
TTITLE10=I Got My Eye On You
TTITLE11=The Wishing Well
EXTD=
EXTT0=
EXTT1=
EXTT2=
EXTT3=
EXTT4=
EXTT5=
EXTT6=
EXTT7=
EXTT8=
EXTT9=
EXTT10=
EXTT11=
PLAYORDER=
